<mxfile host="app.diagrams.net" agent="Mozilla/5.0 (Windows NT 10.0; Win64; x64) AppleWebKit/537.36 (KHTML, like Gecko) Chrome/127.0.0.0 Safari/537.36" version="24.7.6">
  <diagram name="Page-1" id="bfe91b75-5d2c-26a0-9c1d-138518896778">
    <mxGraphModel dx="1358" dy="976" grid="1" gridSize="10" guides="1" tooltips="1" connect="1" arrows="1" fold="1" page="1" pageScale="1" pageWidth="1169" pageHeight="827" background="none" math="0" shadow="0">
      <root>
        <mxCell id="0" />
        <mxCell id="1" parent="0" />
        <mxCell id="rhZr1Ncj7lWOEAyM3C-6-7" style="edgeStyle=orthogonalEdgeStyle;rounded=0;orthogonalLoop=1;jettySize=auto;html=1;exitX=0.75;exitY=1;exitDx=0;exitDy=0;entryX=0.5;entryY=0;entryDx=0;entryDy=0;endArrow=none;endFill=0;strokeWidth=3;" edge="1" parent="1" source="rhZr1Ncj7lWOEAyM3C-6-3" target="rhZr1Ncj7lWOEAyM3C-6-4">
          <mxGeometry relative="1" as="geometry" />
        </mxCell>
        <mxCell id="rhZr1Ncj7lWOEAyM3C-6-3" value="Network Hub (Loft)" style="rounded=0;whiteSpace=wrap;html=1;verticalAlign=top;align=left;" vertex="1" parent="1">
          <mxGeometry x="185" y="10" width="450" height="300" as="geometry" />
        </mxCell>
        <mxCell id="rhZr1Ncj7lWOEAyM3C-6-17" style="edgeStyle=orthogonalEdgeStyle;rounded=0;orthogonalLoop=1;jettySize=auto;html=1;entryX=0;entryY=0.25;entryDx=0;entryDy=0;strokeWidth=3;endArrow=none;endFill=0;exitX=0.5;exitY=1;exitDx=0;exitDy=0;" edge="1" parent="1" source="rhZr1Ncj7lWOEAyM3C-6-4" target="rhZr1Ncj7lWOEAyM3C-6-9">
          <mxGeometry relative="1" as="geometry">
            <mxPoint x="614" y="540" as="sourcePoint" />
            <Array as="points">
              <mxPoint x="523" y="598" />
              <mxPoint x="581" y="598" />
            </Array>
          </mxGeometry>
        </mxCell>
        <mxCell id="rhZr1Ncj7lWOEAyM3C-6-21" style="edgeStyle=orthogonalEdgeStyle;rounded=0;orthogonalLoop=1;jettySize=auto;html=1;exitX=0.25;exitY=1;exitDx=0;exitDy=0;entryX=0;entryY=0.5;entryDx=0;entryDy=0;endArrow=none;endFill=0;strokeWidth=3;" edge="1" parent="1" source="rhZr1Ncj7lWOEAyM3C-6-4" target="rhZr1Ncj7lWOEAyM3C-6-9">
          <mxGeometry relative="1" as="geometry" />
        </mxCell>
        <mxCell id="rhZr1Ncj7lWOEAyM3C-6-4" value="Hall Hub" style="rounded=0;whiteSpace=wrap;html=1;verticalAlign=top;align=left;" vertex="1" parent="1">
          <mxGeometry x="400" y="420" width="245" height="120" as="geometry" />
        </mxCell>
        <mxCell id="rhZr1Ncj7lWOEAyM3C-6-8" style="edgeStyle=orthogonalEdgeStyle;rounded=0;orthogonalLoop=1;jettySize=auto;html=1;entryX=0.25;entryY=0;entryDx=0;entryDy=0;endArrow=none;endFill=0;strokeWidth=3;exitX=0.5;exitY=1;exitDx=0;exitDy=0;" edge="1" parent="1" source="rhZr1Ncj7lWOEAyM3C-6-3" target="rhZr1Ncj7lWOEAyM3C-6-4">
          <mxGeometry relative="1" as="geometry">
            <mxPoint x="170" y="340" as="sourcePoint" />
            <Array as="points">
              <mxPoint x="410" y="400" />
              <mxPoint x="461" y="400" />
            </Array>
          </mxGeometry>
        </mxCell>
        <mxCell id="rhZr1Ncj7lWOEAyM3C-6-9" value="Front Room" style="rounded=0;whiteSpace=wrap;html=1;verticalAlign=top;align=left;" vertex="1" parent="1">
          <mxGeometry x="760" y="570" width="220" height="110" as="geometry" />
        </mxCell>
        <mxCell id="rhZr1Ncj7lWOEAyM3C-6-11" style="edgeStyle=orthogonalEdgeStyle;rounded=0;orthogonalLoop=1;jettySize=auto;html=1;entryX=1;entryY=0.5;entryDx=0;entryDy=0;endArrow=none;endFill=0;strokeWidth=2;" edge="1" parent="1" source="rhZr1Ncj7lWOEAyM3C-6-10" target="rhZr1Ncj7lWOEAyM3C-6-9">
          <mxGeometry relative="1" as="geometry" />
        </mxCell>
        <mxCell id="rhZr1Ncj7lWOEAyM3C-6-10" value="" style="html=1;outlineConnect=0;fillColor=#CCCCCC;strokeColor=#6881B3;gradientColor=none;gradientDirection=north;strokeWidth=2;shape=mxgraph.networks.cloud;fontColor=#ffffff;" vertex="1" parent="1">
          <mxGeometry x="1070" y="600" width="90" height="50" as="geometry" />
        </mxCell>
        <mxCell id="rhZr1Ncj7lWOEAyM3C-6-16" value="" style="endArrow=none;html=1;rounded=0;entryX=1;entryY=0.5;entryDx=0;entryDy=0;exitX=0;exitY=0.5;exitDx=0;exitDy=0;" edge="1" parent="1" source="rhZr1Ncj7lWOEAyM3C-6-9" target="rhZr1Ncj7lWOEAyM3C-6-9">
          <mxGeometry width="50" height="50" relative="1" as="geometry">
            <mxPoint x="760" y="630" as="sourcePoint" />
            <mxPoint x="810" y="580" as="targetPoint" />
          </mxGeometry>
        </mxCell>
        <mxCell id="rhZr1Ncj7lWOEAyM3C-6-18" value="PC Room" style="rounded=0;whiteSpace=wrap;html=1;verticalAlign=top;align=left;" vertex="1" parent="1">
          <mxGeometry x="20" y="510" width="340" height="280" as="geometry" />
        </mxCell>
        <mxCell id="rhZr1Ncj7lWOEAyM3C-6-22" value="" style="endArrow=none;html=1;rounded=0;entryX=0.25;entryY=0;entryDx=0;entryDy=0;exitX=0.25;exitY=1;exitDx=0;exitDy=0;" edge="1" parent="1" source="rhZr1Ncj7lWOEAyM3C-6-4" target="rhZr1Ncj7lWOEAyM3C-6-4">
          <mxGeometry width="50" height="50" relative="1" as="geometry">
            <mxPoint x="430" y="500" as="sourcePoint" />
            <mxPoint x="480" y="450" as="targetPoint" />
          </mxGeometry>
        </mxCell>
        <mxCell id="rhZr1Ncj7lWOEAyM3C-6-23" value="PVE-2" style="fontColor=#0066CC;verticalAlign=top;verticalLabelPosition=bottom;labelPosition=center;align=center;html=1;outlineConnect=0;fillColor=#CCCCCC;strokeColor=#6881B3;gradientColor=none;gradientDirection=north;strokeWidth=2;shape=mxgraph.networks.virtual_server;" vertex="1" parent="1">
          <mxGeometry x="340" y="50" width="100" height="100" as="geometry" />
        </mxCell>
        <mxCell id="rhZr1Ncj7lWOEAyM3C-6-24" value="PVE-1" style="fontColor=#0066CC;verticalAlign=top;verticalLabelPosition=bottom;labelPosition=center;align=center;html=1;outlineConnect=0;fillColor=#CCCCCC;strokeColor=#6881B3;gradientColor=none;gradientDirection=north;strokeWidth=2;shape=mxgraph.networks.virtual_server;" vertex="1" parent="1">
          <mxGeometry x="210" y="50" width="100" height="100" as="geometry" />
        </mxCell>
        <mxCell id="rhZr1Ncj7lWOEAyM3C-6-28" style="edgeStyle=orthogonalEdgeStyle;rounded=0;orthogonalLoop=1;jettySize=auto;html=1;exitX=0;exitY=0.75;exitDx=0;exitDy=0;entryX=1;entryY=0.75;entryDx=0;entryDy=0;verticalAlign=middle;align=center;endArrow=none;endFill=0;strokeWidth=3;" edge="1" parent="1" source="rhZr1Ncj7lWOEAyM3C-6-27" target="rhZr1Ncj7lWOEAyM3C-6-4">
          <mxGeometry relative="1" as="geometry" />
        </mxCell>
        <mxCell id="rhZr1Ncj7lWOEAyM3C-6-27" value="Bedroom" style="rounded=0;whiteSpace=wrap;html=1;verticalAlign=top;align=left;" vertex="1" parent="1">
          <mxGeometry x="760" y="420" width="220" height="120" as="geometry" />
        </mxCell>
      </root>
    </mxGraphModel>
  </diagram>
</mxfile>
